# Blender v3.0.0 OBJ File: 'untitled.blend'
# www.blender.org
mtllib custom_pic.mtl
o Custom_Pic_Cube.001
v -2.999832 0.243375 1.563624
v -2.999832 0.340321 2.075006
v -2.999832 -0.109413 1.630504
v -2.999832 -0.012467 2.141886
v -2.978478 0.289520 2.038022
v -2.978478 0.209635 1.616634
v -2.978478 -0.058613 1.667488
v -2.978478 0.021272 2.088875
v -2.962777 0.238629 1.571081
v -2.970037 0.243375 1.563624
v -2.970037 0.340321 2.075006
v -2.962777 0.333175 2.069803
v -2.962777 -0.102267 1.635706
v -2.970037 -0.109413 1.630504
v -2.970037 -0.012467 2.141886
v -2.962777 -0.007721 2.134429
v -2.962777 0.296666 2.043224
v -2.970037 0.289520 2.038022
v -2.970037 0.209635 1.616634
v -2.962777 0.214381 1.609178
v -2.970037 -0.058613 1.667488
v -2.962777 -0.065758 1.662286
v -2.962777 0.016526 2.096332
v -2.970037 0.021272 2.088875
v -2.999832 0.243375 1.563624
v -2.999832 0.340321 2.075006
v -2.999832 -0.109413 1.630504
v -2.999832 -0.012467 2.141886
v -2.978478 0.289520 2.038022
v -2.978478 0.209635 1.616634
v -2.978478 -0.058613 1.667488
v -2.978478 0.021272 2.088875
vt 0.424765 0.033280
vt 0.833252 0.033280
vt 0.806765 0.056895
vt 0.451252 0.056895
vt 0.833255 0.113914
vt 0.424767 0.113914
vt 0.451254 0.090300
vt 0.806768 0.090299
vt 0.456436 0.064113
vt 0.801579 0.064114
vt 0.801579 0.070561
vt 0.456436 0.070561
vt 0.986042 0.809390
vt 0.706822 0.809390
vt 0.731705 0.784251
vt 0.961160 0.784252
vt 0.662566 0.916561
vt 0.383346 0.916561
vt 0.408228 0.891423
vt 0.637684 0.891423
vt 0.378476 0.923974
vt 0.667435 0.923974
vt 0.667435 0.946730
vt 0.378476 0.946730
vt 0.419583 0.121133
vt 0.838439 0.121132
vt 0.838439 0.143888
vt 0.419583 0.143888
vt 0.419581 0.003306
vt 0.838436 0.003306
vt 0.838436 0.026062
vt 0.419581 0.026062
vt 0.801583 0.083080
vt 0.456439 0.083081
vt 0.456439 0.076634
vt 0.801583 0.076633
vt 0.956290 0.776839
vt 0.736575 0.776839
vt 0.736575 0.770392
vt 0.956290 0.770393
vt 0.632814 0.884011
vt 0.413098 0.884010
vt 0.413098 0.877563
vt 0.632814 0.877564
vt 0.990911 0.816803
vt 0.701952 0.816803
vt 0.990911 0.839558
vt 0.701952 0.839558
vt 0.833916 0.285319
vt 0.833916 0.403229
vt 0.748207 0.403229
vt 0.748207 0.285319
vt 0.224525 0.003304
vt 0.224525 0.330868
vt 0.004811 0.330869
vt 0.004811 0.003304
vn 0.8847 0.2712 -0.3793
vn 0.8847 0.3912 0.2537
vn 0.9847 -0.1434 -0.0992
vn 0.9847 -0.0972 0.1449
vn 0.8847 -0.2712 0.3793
vn 0.8847 -0.3912 -0.2537
vn 0.9847 0.1434 0.0992
vn 0.9847 0.0972 -0.1449
vn 0.5264 -0.4868 0.6971
vn 0.5264 -0.7082 -0.4705
vn 0.0000 -0.8264 -0.5630
vn 0.0000 -0.5630 0.8264
vn 0.3668 -0.5220 0.7701
vn 0.3668 0.7676 0.5256
vn 0.0000 0.8264 0.5630
vn 0.3668 -0.7676 -0.5256
vn 0.0000 0.5630 -0.8264
vn 0.3668 0.5220 -0.7701
vn 0.5264 0.4868 -0.6971
vn 0.5264 0.7082 0.4705
vn -1.0000 0.0000 0.0000
vn 1.0000 0.0000 0.0000
usemtl Custom_pic
s 1
f 9/1/1 12/2/2 17/3/3 20/4/4
f 16/5/5 13/6/6 22/7/7 23/8/8
f 19/9/9 18/10/10 5/11/11 6/12/12
f 13/13/6 9/14/1 20/15/4 22/16/7
f 12/17/2 16/18/5 23/19/8 17/20/3
f 15/21/13 11/22/14 2/23/15 4/24/12
f 14/25/16 15/26/13 4/27/12 3/28/11
f 1/29/17 2/30/15 11/31/14 10/32/18
f 24/33/19 21/34/20 7/35/15 8/36/17
f 21/37/20 19/38/9 6/39/12 7/40/15
f 18/41/10 24/42/19 8/43/17 5/44/11
f 12/2/2 9/1/1 10/32/18 11/31/14
f 14/45/16 10/46/18 9/14/1 13/13/6
f 11/22/14 15/21/13 16/18/5 12/17/2
f 15/26/13 14/25/16 13/6/6 16/5/5
f 18/10/10 19/9/9 20/4/4 17/3/3
f 22/16/7 20/15/4 19/38/9 21/37/20
f 17/20/3 23/19/8 24/42/19 18/41/10
f 23/8/8 22/7/7 21/34/20 24/33/19
f 10/46/18 14/45/16 3/47/11 1/48/17
f 27/49/21 28/50/21 26/51/21 25/52/21
f 30/53/22 29/54/22 32/55/22 31/56/22
